<svg width="20" height="20" viewBox="0 0 20 20" fill="none" xmlns="http://www.w3.org/2000/svg">
<path d="M12.5 15H7.5V15.625C7.5 16.6605 8.61929 17.5 10 17.5C11.3807 17.5 12.5 16.6605 12.5 15.625V15Z" fill="#202020"/>
<path d="M4.16536 14.1667H15.832C16.2923 14.1667 16.6654 13.7936 16.6654 13.3333V12.8452C16.6654 12.6242 16.5776 12.4122 16.4213 12.2559L15.9956 11.8302C15.8909 11.7255 15.832 11.5834 15.832 11.4353V8.33333C15.832 5.11166 13.2203 2.49999 9.99868 2.5C6.77703 2.50001 4.16536 5.11167 4.16536 8.33333V11.4353C4.16536 11.5835 4.10653 11.7255 4.0018 11.8302L3.57611 12.2559C3.41983 12.4122 3.33203 12.6242 3.33203 12.8452V13.3333C3.33203 13.7936 3.70513 14.1667 4.16536 14.1667Z" fill="#202020"/>
</svg>
