<svg width="24" height="24" viewBox="0 0 24 24" fill="none" xmlns="http://www.w3.org/2000/svg">
<path d="M6.63198 2.04623C6.40715 2.13522 6.20575 2.31789 6.08865 2.5474C6.00903 2.70665 5.99966 2.83311 5.99966 3.84013V4.95957L5.21746 4.98299C4.52894 5.00172 4.38374 5.02046 4.07461 5.12819C3.58749 5.2968 3.21747 5.52163 2.87087 5.86823C2.50553 6.23357 2.29944 6.56612 2.13082 7.05792C2.01841 7.39047 1.99967 7.52162 1.98094 8.21483L1.95752 9.00171H11.995H22.0324L22.0043 8.21483C21.9809 7.35769 21.934 7.13755 21.6671 6.61296C21.3064 5.9057 20.7116 5.39985 19.934 5.13287C19.6015 5.02046 19.4703 5.00172 18.7771 4.98299L17.9903 4.95957V3.84013C17.9903 2.82374 17.9809 2.70665 17.9013 2.54271C17.55 1.85419 16.5945 1.79799 16.1401 2.43499L15.9996 2.64107L15.9856 3.80735L15.9715 4.97362H11.995H8.01839L8.00434 3.80735L7.99029 2.64107L7.84977 2.43499C7.58279 2.06028 7.04884 1.89166 6.63198 2.04623Z" fill="currentColor"/>
<path d="M1.98036 15.2647L1.99441 19.5644L2.12087 19.9204C2.47685 20.9227 3.1841 21.6019 4.20049 21.9157C4.46279 21.9953 4.83749 22 11.9944 22C19.1513 22 19.526 21.9953 19.793 21.9157C20.8187 21.6019 21.5541 20.8759 21.9054 19.822C21.9897 19.5785 21.9944 19.2974 22.0084 15.2647L22.0225 10.9696H11.9944H1.96631L1.98036 15.2647Z" fill="currentColor"/>
</svg>
