<svg width="24" height="24" viewBox="0 0 24 24" fill="none" xmlns="http://www.w3.org/2000/svg">
<path fill-rule="evenodd" clip-rule="evenodd" d="M19 9.92295C19 16.1536 12 20.9997 12 20.9997C12 20.9997 5 16.1536 5 9.92295C5 8.08687 5.7375 6.32599 7.05025 5.02769C8.36301 3.72938 10.1435 3 12 3C13.8565 3 15.637 3.72938 16.9497 5.02769C18.2625 6.32599 19 8.08687 19 9.92295ZM14.3986 9.59791C14.3986 10.9234 13.3241 11.9979 11.9986 11.9979C10.6731 11.9979 9.59863 10.9234 9.59863 9.59791C9.59863 8.27245 10.6731 7.19796 11.9986 7.19796C13.3241 7.19796 14.3986 8.27245 14.3986 9.59791Z" fill="currentColor"/>
</svg>
