<svg width="20" height="20" viewBox="0 0 20 20" fill="none" xmlns="http://www.w3.org/2000/svg">
<path d="M9.86101 17.3332C8.6508 17.3332 7.44001 17.3332 6.22921 17.3332C5.62528 17.3332 5.06008 17.1912 4.56884 16.8232C4.02184 16.4147 3.7008 15.863 3.64269 15.1934C3.53646 13.9608 3.67967 12.7483 4.13863 11.5915C4.41741 10.8872 4.83471 10.285 5.52609 9.91409C5.94449 9.68881 6.41377 9.57483 6.8889 9.58308C7.03973 9.58308 7.19937 9.66172 7.3373 9.73685C7.56326 9.86068 7.77278 10.0145 7.99288 10.1477C9.24221 10.9142 10.4916 10.9128 11.7409 10.1436C11.917 10.0338 12.1007 9.92642 12.2691 9.80082C12.5626 9.57897 12.8912 9.5508 13.2416 9.60186C14.2306 9.74682 14.9243 10.2885 15.3891 11.1589C15.7929 11.916 15.976 12.733 16.057 13.5764C16.0987 14.0131 16.1157 14.4533 16.1157 14.8917C16.1199 15.5006 15.8921 16.0882 15.4786 16.5352C15.0651 16.9822 14.497 17.2549 13.8896 17.298C13.5644 17.325 13.2363 17.3262 12.91 17.3274C11.8923 17.3356 10.877 17.3332 9.86101 17.3332Z" fill="#202020"/>
<path d="M9.76981 2.3332C11.7183 2.31266 13.3899 3.92725 13.3869 5.94916C13.3869 7.96168 11.7318 9.5751 9.76394 9.55984C8.8136 9.54698 7.90658 9.16023 7.23936 8.48337C6.57214 7.80652 6.19845 6.89405 6.19922 5.94362C6.19999 4.99319 6.57517 4.08133 7.24349 3.40556C7.9118 2.72979 8.81944 2.34452 9.76981 2.3332Z" fill="#202020"/>
</svg>
