<svg width="24" height="24" viewBox="0 0 24 24" fill="none" xmlns="http://www.w3.org/2000/svg">
<path fill-rule="evenodd" clip-rule="evenodd" d="M15.4711 7.26241C17.7189 9.6972 17.5672 13.4932 15.1325 15.7409C12.6977 17.9887 8.90171 17.8371 6.65394 15.4023C4.40616 12.9675 4.55777 9.17156 6.99256 6.92379C9.42735 4.67601 13.2233 4.82762 15.4711 7.26241ZM17.1818 16.4867C19.7477 13.4483 19.7079 8.90333 16.9406 5.90576C13.9436 2.65938 8.88229 2.45723 5.63591 5.45426C2.38953 8.45129 2.18738 13.5126 5.18441 16.759C7.9517 19.7565 12.4789 20.1586 15.7123 17.8433L18.4678 20.8281L19.9373 19.4715L17.1818 16.4867Z" fill="currentColor"/>
</svg>
