<svg width="20" height="21" viewBox="0 0 20 21" fill="none" xmlns="http://www.w3.org/2000/svg">
<g clip-path="url(#clip0_560_20099)">
<path d="M6.11735 13.138C4.73822 15.0516 2.32551 14.9554 1.00948 13.5943C0.378459 12.9486 0.0161206 12.0705 0.000525006 11.1491C-0.0150705 10.2277 0.317325 9.3368 0.926104 8.66831C2.10016 7.35737 4.38142 7.03022 5.90852 8.7724L11.4799 5.2763C11.1133 4.25024 11.1741 3.25393 11.6782 2.30222C12.0554 1.57211 12.6777 1.01257 13.4261 0.730655C15.0193 0.114708 16.7169 0.763527 17.5695 2.30535C18.368 3.75013 18.0202 5.63397 16.756 6.73203C15.5939 7.74087 13.5087 7.97801 12.0507 6.28748L9.55314 7.85279L6.65217 9.67324C6.5718 9.72333 6.48767 9.75542 6.53724 9.89238C6.79145 10.5705 6.81793 11.3183 6.61236 12.0141C6.61138 12.0312 6.6129 12.0484 6.61687 12.065C6.66945 12.0955 6.72804 12.1315 6.78738 12.1636C8.43992 13.0454 10.0925 13.9285 11.745 14.8129C11.887 14.8912 11.9516 14.8677 12.0455 14.7433C12.8808 13.6585 14.2704 13.221 15.5894 13.6178C16.3809 13.8633 17.0585 14.4027 17.4937 15.134C17.9288 15.8652 18.0914 16.7374 17.9506 17.5853C17.8097 18.4331 17.3752 19.1976 16.7295 19.7339C16.0837 20.2702 15.2715 20.541 14.4469 20.495C12.8492 20.4237 11.4806 19.0995 11.2793 17.4426C11.2212 16.9908 11.2552 16.5313 11.3792 16.0941C11.3888 16.0743 11.3941 16.0526 11.3947 16.0305C11.3954 16.0083 11.3914 15.9863 11.383 15.966C11.3746 15.9456 11.3621 15.9274 11.3463 15.9126C11.3304 15.8979 11.3117 15.8869 11.2913 15.8805C9.58869 14.9741 7.88607 14.066 6.18345 13.156C6.16193 13.1481 6.13982 13.1421 6.11735 13.138Z" fill="currentColor"/>
</g>
<defs>
<clipPath id="clip0_560_20099">
<rect width="20" height="20" fill="white" transform="translate(0 0.5)"/>
</clipPath>
</defs>
</svg>
