<svg width="22" height="24" viewBox="0 0 22 24" fill="none" xmlns="http://www.w3.org/2000/svg">
<path fill-rule="evenodd" clip-rule="evenodd" d="M3.16866 11.065C7.73205 9.07677 10.775 7.76602 12.2976 7.13274C16.6448 5.32458 17.5481 5.01048 18.1369 5.00011C18.2664 4.99783 18.5559 5.02992 18.7435 5.18211C18.9018 5.31061 18.9454 5.4842 18.9663 5.60603C18.9871 5.72786 19.0131 6.00541 18.9924 6.22227C18.7569 8.6975 17.7375 14.7042 17.2189 17.4765C16.9995 18.6496 16.5674 19.0429 16.1492 19.0814C15.2401 19.1651 14.5498 18.4807 13.6694 17.9035C12.2916 17.0004 11.5133 16.4382 10.176 15.5569C8.63045 14.5384 9.63235 13.9787 10.5131 13.0638C10.7436 12.8244 14.7489 9.18133 14.8264 8.85084C14.8361 8.80951 14.8451 8.65544 14.7536 8.57408C14.6621 8.49273 14.527 8.52055 14.4295 8.54267C14.2913 8.57404 12.0904 10.0288 7.82663 12.9069C7.2019 13.3359 6.63604 13.5449 6.12904 13.534C5.57012 13.5219 4.49499 13.2179 3.69573 12.9581C2.71541 12.6395 1.93627 12.471 2.00412 11.9298C2.03946 11.6479 2.42764 11.3596 3.16866 11.065Z" fill="currentColor"/>
</svg>
