<svg width="180" height="180" viewBox="0 0 180 180" fill="none" xmlns="http://www.w3.org/2000/svg">
<path d="M88.7647 155.999C77.8729 155.999 66.9757 155.999 56.0785 155.999C50.6431 155.999 45.5564 154.721 41.1352 151.409C36.2122 147.732 33.3228 142.767 32.7999 136.74C31.8438 125.647 33.1326 114.734 37.2633 104.323C39.7724 97.9846 43.528 92.5651 49.7504 89.2267C53.5161 87.1992 57.7395 86.1733 62.0157 86.2476C63.3732 86.2476 64.81 86.9554 66.0513 87.6315C68.0849 88.746 69.9707 90.13 71.9515 91.329C83.1955 98.2276 94.4396 98.2153 105.684 91.2921C107.268 90.3043 108.922 89.3376 110.438 88.2073C113.079 86.2106 116.037 85.957 119.19 86.4166C128.091 87.7213 134.334 92.5968 138.518 100.43C142.152 107.244 143.8 114.597 144.529 122.188C144.904 126.118 145.057 130.079 145.057 134.025C145.095 139.505 143.045 144.794 139.323 148.817C135.602 152.839 130.488 155.294 125.022 155.682C122.095 155.925 119.143 155.936 116.206 155.946C107.046 156.02 97.9082 155.999 88.7647 155.999Z" fill="#C4C4C4"/>
<path d="M87.9361 21.0017C105.473 20.8169 120.517 35.3482 120.49 53.5454C120.49 71.658 105.594 86.1788 87.8832 86.0415C79.3302 85.9257 71.167 82.445 65.1621 76.3533C59.1571 70.2616 55.7938 62.0494 55.8008 53.4955C55.8077 44.9417 59.1843 36.7349 65.1992 30.653C71.214 24.571 79.3828 21.1036 87.9361 21.0017Z" fill="#C4C4C4"/>
</svg>
