<svg style="display: none;" aria-hidden="true" xmlns="http://www.w3.org/2000/svg" xmlns:xlink="http://www.w3.org/1999/xlink"><symbol viewBox="0 0 24 24" fill="currentColor" id="svg-arrow" xmlns="http://www.w3.org/2000/svg"><path d="M12.3553 4V8.28571H1V14.7143H12.3553V19L23 11.5L12.3553 4Z"/></symbol><symbol viewBox="0 0 24 24" fill="none" id="svg-arrow-down" xmlns="http://www.w3.org/2000/svg"><path d="M18 9L12 15L6 9" stroke="currentColor" stroke-width="2" stroke-linecap="square" stroke-linejoin="round"/></symbol><symbol viewBox="0 0 24 24" fill="none" id="svg-arrow-left" xmlns="http://www.w3.org/2000/svg"><path d="M16.8008 5.55998L10.8332 12L16.8008 18.44L14.9845 20.4L7.20078 12L14.9845 3.59998L16.8008 5.55998Z" fill="currentColor"/></symbol><symbol viewBox="0 0 24 24" fill="none" id="svg-arrow-right" xmlns="http://www.w3.org/2000/svg"><path d="M7.19922 18.44L13.1668 12L7.19922 5.56003L9.01548 3.60003L16.7992 12L9.01549 20.4L7.19922 18.44Z" fill="currentColor"/></symbol><symbol viewBox="0 0 24 24" fill="none" id="svg-arrow_up" xmlns="http://www.w3.org/2000/svg"><path d="M18 15L12 9L6 15" stroke="#202020" stroke-width="2" stroke-linecap="square" stroke-linejoin="round"/></symbol><symbol viewBox="0 0 20 20" fill="none" id="svg-bell" xmlns="http://www.w3.org/2000/svg"><path d="M12.5 15H7.5V15.625C7.5 16.6605 8.61929 17.5 10 17.5 11.3807 17.5 12.5 16.6605 12.5 15.625V15ZM4.16536 14.1667H15.832C16.2923 14.1667 16.6654 13.7936 16.6654 13.3333V12.8452C16.6654 12.6242 16.5776 12.4122 16.4213 12.2559L15.9956 11.8302C15.8909 11.7255 15.832 11.5834 15.832 11.4353V8.33333C15.832 5.11166 13.2203 2.49999 9.99868 2.5 6.77703 2.50001 4.16536 5.11167 4.16536 8.33333V11.4353C4.16536 11.5835 4.10653 11.7255 4.0018 11.8302L3.57611 12.2559C3.41983 12.4122 3.33203 12.6242 3.33203 12.8452V13.3333C3.33203 13.7936 3.70513 14.1667 4.16536 14.1667Z" fill="#202020"/></symbol><symbol viewBox="0 0 24 24" id="svg-btn-loader" xmlns="http://www.w3.org/2000/svg"><path fill="none" d="M0 0h24v24H0z"/><path fill="currentColor" d="M18.364 5.636L16.95 7.05A7 7 0 1 0 19 12h2a9 9 0 1 1-2.636-6.364z"/></symbol><symbol viewBox="0 0 24 24" fill="none" id="svg-calendar" xmlns="http://www.w3.org/2000/svg"><path d="M6.63198 2.04623C6.40715 2.13522 6.20575 2.31789 6.08865 2.5474 6.00903 2.70665 5.99966 2.83311 5.99966 3.84013V4.95957L5.21746 4.98299C4.52894 5.00172 4.38374 5.02046 4.07461 5.12819 3.58749 5.2968 3.21747 5.52163 2.87087 5.86823 2.50553 6.23357 2.29944 6.56612 2.13082 7.05792 2.01841 7.39047 1.99967 7.52162 1.98094 8.21483L1.95752 9.00171H11.995 22.0324L22.0043 8.21483C21.9809 7.35769 21.934 7.13755 21.6671 6.61296 21.3064 5.9057 20.7116 5.39985 19.934 5.13287 19.6015 5.02046 19.4703 5.00172 18.7771 4.98299L17.9903 4.95957V3.84013C17.9903 2.82374 17.9809 2.70665 17.9013 2.54271 17.55 1.85419 16.5945 1.79799 16.1401 2.43499L15.9996 2.64107 15.9856 3.80735 15.9715 4.97362H11.995 8.01839L8.00434 3.80735 7.99029 2.64107 7.84977 2.43499C7.58279 2.06028 7.04884 1.89166 6.63198 2.04623ZM1.98036 15.2647 1.99441 19.5644 2.12087 19.9204C2.47685 20.9227 3.1841 21.6019 4.20049 21.9157 4.46279 21.9953 4.83749 22 11.9944 22 19.1513 22 19.526 21.9953 19.793 21.9157 20.8187 21.6019 21.5541 20.8759 21.9054 19.822 21.9897 19.5785 21.9944 19.2974 22.0084 15.2647L22.0225 10.9696H11.9944 1.96631L1.98036 15.2647Z" fill="currentColor"/></symbol><symbol viewBox="0 0 12 12" fill="none" id="svg-check" xmlns="http://www.w3.org/2000/svg"><circle cx="6" cy="6" r="6" fill="currentColor"/><path d="M3.33325 6.10547L5.21887 7.99109L8.99011 4.21985" stroke="#fff" stroke-width=".8" stroke-linecap="square"/></symbol><symbol viewBox="0 0 24 24" fill="none" id="svg-clear" xmlns="http://www.w3.org/2000/svg"><path d="M9 9 15 15M15 9 9 15" stroke="currentColor" stroke-width="2" stroke-linecap="round" stroke-linejoin="round"/><circle cx="12" cy="12" r="9" stroke="currentColor" stroke-width="2" stroke-linecap="round" stroke-linejoin="round"/></symbol><symbol viewBox="0 0 24 24" fill="none" id="svg-cross" xmlns="http://www.w3.org/2000/svg"><path d="M19 19 5 5M19 5 5 19" stroke="currentColor" stroke-width="2" stroke-linecap="square" stroke-linejoin="round"/></symbol><symbol viewBox="0 0 24 24" fill="none" id="svg-download" xmlns="http://www.w3.org/2000/svg"><path d="M18.5 9.90901H14.7857V4L9.21428 4V9.90901H5.5L12 16L18.5 9.90901Z" fill="currentColor"/><path d="M4 14.75H3.75V15L3.75 18.3333C3.75 19.4326 4.80193 20.25 6 20.25H18C19.1981 20.25 20.25 19.4326 20.25 18.3333V15V14.75H20H19H18.75V15V18.3333C18.75 18.6147 18.4588 18.9167 18 18.9167H6C5.5412 18.9167 5.25 18.6147 5.25 18.3333V15V14.75H5H4Z" fill="currentColor" stroke="currentColor" stroke-width=".5"/></symbol><symbol viewBox="0 0 20 21" fill="none" id="svg-edit" xmlns="http://www.w3.org/2000/svg"><path d="M3.33337 17.1667H6.96917L17.2338 6.90202C17.5888 6.54705 17.5888 5.97154 17.2338 5.61657L14.8835 3.26622C14.5285 2.91126 13.953 2.91126 13.598 3.26622L3.33337 13.5309V17.1667ZM10.8334 6.33398 14.1667 9.66732" stroke="currentColor" stroke-width="1.667" stroke-linecap="round" stroke-linejoin="round"/></symbol><symbol viewBox="0 0 674 674" fill="none" id="svg-ellipse" xmlns="http://www.w3.org/2000/svg"><circle cx="337" cy="337" r="287" stroke="#FB6542" stroke-width="100"/></symbol><symbol viewBox="0 0 72 72" fill="none" id="svg-f" xmlns="http://www.w3.org/2000/svg"><path fill-rule="evenodd" clip-rule="evenodd" d="M0 36C0 16.1177 16.1177 0 36 0C55.8823 0 72 16.1177 72 36C72 55.8823 55.8823 72 36 72C16.1177 72 0 55.8823 0 36ZM39.7523 57.1672V37.5813H45.1589L45.8754 30.8319H39.7523L39.7615 27.4538C39.7615 25.6934 39.9288 24.7502 42.4571 24.7502H45.8371V18H40.4298C33.9347 18 31.6486 21.2742 31.6486 26.7803V30.8327H27.6V37.5821H31.6486V57.1672H39.7523Z" fill="currentColor"/></symbol><symbol viewBox="0 0 24 24" fill="none" id="svg-file" xmlns="http://www.w3.org/2000/svg"><path fill-rule="evenodd" clip-rule="evenodd" d="M19.53 9.44016L12.53 2.44016C12.3827 2.31389 12.194 2.24625 12 2.25016H9C6.37665 2.25016 4.25 4.37681 4.25 7.00016V17.0002C4.25 19.6235 6.37665 21.7502 9 21.7502H15C17.6234 21.7502 19.75 19.6235 19.75 17.0002V10.0002C19.7534 9.79178 19.6743 9.5905 19.53 9.44016ZM12.75 4.79016L17.21 9.25016H14C13.3096 9.25016 12.75 8.69052 12.75 8.00016V4.79016ZM5.75 17.0002C5.75549 18.7928 7.20735 20.2447 9 20.2502H15C16.7926 20.2447 18.2445 18.7928 18.25 17.0002V10.7502H14C12.4812 10.7502 11.25 9.51894 11.25 8.00016V3.75016H9C7.20735 3.75565 5.75549 5.20751 5.75 7.00016V17.0002Z" fill="currentColor"/></symbol><symbol viewBox="0 0 24 24" fill="none" id="svg-filters" xmlns="http://www.w3.org/2000/svg"><path fill="currentColor" d="M2 7H22V9H2zM2 15H22V17H2z"/><circle cx="9" cy="8" r="3" fill="currentColor"/><circle cx="15" cy="16" r="3" fill="currentColor"/></symbol><symbol viewBox="0 0 72 72" fill="none" id="svg-i" xmlns="http://www.w3.org/2000/svg"><path fill-rule="evenodd" clip-rule="evenodd" d="M0 36C0 16.1177 16.1177 0 36 0C55.8823 0 72 16.1177 72 36C72 55.8823 55.8823 72 36 72C16.1177 72 0 55.8823 0 36ZM36.0018 16.8C30.7873 16.8 30.1329 16.8228 28.0849 16.916C26.0409 17.0096 24.6457 17.3332 23.4249 17.808C22.1621 18.2984 21.0908 18.9544 20.0236 20.022C18.9556 21.0892 18.2996 22.1605 17.8076 23.4229C17.3316 24.6441 17.0076 26.0397 16.9156 28.0829C16.824 30.1309 16.8 30.7857 16.8 36.0002C16.8 41.2147 16.8232 41.8671 16.916 43.9151C17.01 45.9591 17.3336 47.3543 17.808 48.5751C18.2988 49.8379 18.9548 50.9092 20.0224 51.9764C21.0892 53.0444 22.1605 53.702 23.4225 54.1924C24.6441 54.6672 26.0397 54.9908 28.0833 55.0844C30.1313 55.1776 30.7853 55.2004 35.9994 55.2004C41.2143 55.2004 41.8667 55.1776 43.9147 55.0844C45.9587 54.9908 47.3555 54.6672 48.5771 54.1924C49.8395 53.702 50.9092 53.0444 51.976 51.9764C53.044 50.9092 53.7 49.8379 54.192 48.5755C54.664 47.3543 54.988 45.9587 55.084 43.9155C55.176 41.8675 55.2 41.2147 55.2 36.0002C55.2 30.7857 55.176 30.1313 55.084 28.0833C54.988 26.0393 54.664 24.6441 54.192 23.4233C53.7 22.1605 53.044 21.0892 51.976 20.022C50.908 18.954 49.8399 18.298 48.5759 17.808C47.3519 17.3332 45.9559 17.0096 43.9119 16.916C41.8639 16.8228 41.2119 16.8 35.9958 16.8H36.0018Z" fill="currentColor"/><path fill-rule="evenodd" clip-rule="evenodd" d="M34.2794 20.26C34.7906 20.2592 35.361 20.26 36.0018 20.26C41.1283 20.26 41.7359 20.2784 43.7603 20.3704C45.6323 20.456 46.6483 20.7688 47.3251 21.0316C48.2211 21.3796 48.8599 21.7957 49.5315 22.4677C50.2035 23.1397 50.6196 23.7797 50.9684 24.6757C51.2312 25.3517 51.5444 26.3677 51.6296 28.2397C51.7216 30.2637 51.7416 30.8717 51.7416 35.9958C51.7416 41.1199 51.7216 41.7279 51.6296 43.7519C51.544 45.6239 51.2312 46.6399 50.9684 47.3159C50.6204 48.2119 50.2035 48.8499 49.5315 49.5215C48.8595 50.1935 48.2215 50.6096 47.3251 50.9576C46.6491 51.2216 45.6323 51.5336 43.7603 51.6192C41.7363 51.7112 41.1283 51.7312 36.0018 51.7312C30.8749 51.7312 30.2673 51.7112 28.2433 51.6192C26.3713 51.5328 25.3553 51.22 24.6781 50.9572C23.7821 50.6091 23.1421 50.1931 22.4701 49.5211C21.7981 48.8491 21.382 48.2107 21.0332 47.3143C20.7704 46.6383 20.4572 45.6223 20.372 43.7503C20.28 41.7263 20.2616 41.1183 20.2616 35.991C20.2616 30.8637 20.28 30.2589 20.372 28.2349C20.4576 26.3629 20.7704 25.3469 21.0332 24.6701C21.3812 23.7741 21.7981 23.1341 22.4701 22.4621C23.1421 21.7901 23.7821 21.374 24.6781 21.0252C25.3549 20.7612 26.3713 20.4492 28.2433 20.3632C30.0145 20.2832 30.7009 20.2592 34.2794 20.2552V20.26ZM46.2507 23.4481C44.9787 23.4481 43.9467 24.4789 43.9467 25.7513C43.9467 27.0233 44.9787 28.0553 46.2507 28.0553C47.5227 28.0553 48.5547 27.0233 48.5547 25.7513C48.5547 24.4793 47.5227 23.4481 46.2507 23.4481ZM36.0018 26.1401C30.5565 26.1401 26.1417 30.5549 26.1417 36.0002C26.1417 41.4455 30.5565 45.8583 36.0018 45.8583C41.4471 45.8583 45.8603 41.4455 45.8603 36.0002C45.8603 30.5549 41.4471 26.1401 36.0018 26.1401Z" fill="currentColor"/><path fill-rule="evenodd" clip-rule="evenodd" d="M36.0018 29.6001C39.5362 29.6001 42.4019 32.4654 42.4019 36.0002C42.4019 39.5346 39.5362 42.4003 36.0018 42.4003C32.467 42.4003 29.6017 39.5346 29.6017 36.0002C29.6017 32.4654 32.467 29.6001 36.0018 29.6001Z" fill="currentColor"/></symbol><symbol viewBox="0 0 20 20" fill="none" id="svg-like" xmlns="http://www.w3.org/2000/svg"><path d="M10 16.6667C10 16.6667 2.5 12.4896 2.5 7.47699C2.5 2.46439 8.33333 2.04668 10 5.96855C11.6667 2.04668 17.5 2.46439 17.5 7.47699C17.5 12.4896 10 16.6667 10 16.6667Z" stroke="currentColor" stroke-linecap="round" stroke-linejoin="round"/></symbol><symbol viewBox="0 0 20 20" fill="none" id="svg-like-full" xmlns="http://www.w3.org/2000/svg"><path d="M10 16.6667C10 16.6667 2.5 12.4896 2.5 7.47699C2.5 2.46439 8.33333 2.04668 10 5.96855C11.6667 2.04668 17.5 2.46439 17.5 7.47699C17.5 12.4896 10 16.6667 10 16.6667Z" fill="currentColor"/></symbol><symbol viewBox="0 0 72 72" fill="none" id="svg-lin" xmlns="http://www.w3.org/2000/svg"><path fill-rule="evenodd" clip-rule="evenodd" d="M0 36C0 16.1177 16.1177 0 36 0C55.8823 0 72 16.1177 72 36C72 55.8823 55.8823 72 36 72C16.1177 72 0 55.8823 0 36ZM25.4407 29.8168H17.2824V54.3293H25.4407V29.8168ZM25.9782 22.234C25.9253 19.8306 24.2066 18 21.4156 18C18.6247 18 16.8001 19.8306 16.8001 22.234C16.8001 24.5877 18.5708 26.471 21.3097 26.471H21.3619C24.2066 26.471 25.9782 24.5877 25.9782 22.234ZM54.8629 40.2746C54.8629 32.7454 50.8381 29.2412 45.4695 29.2412C41.1379 29.2412 39.1986 31.6204 38.1158 33.2894V29.8174H29.9565C30.064 32.1176 29.9565 54.33 29.9565 54.33H38.1158V40.6402C38.1158 39.9076 38.1688 39.1768 38.3845 38.6522C38.9741 37.1887 40.3166 35.6734 42.5706 35.6734C45.5239 35.6734 46.7045 37.9211 46.7045 41.2151V54.3294H54.8626L54.8629 40.2746Z" fill="currentColor"/></symbol><symbol viewBox="0 0 24 24" fill="none" id="svg-link" xmlns="http://www.w3.org/2000/svg"><path d="M9.17188 14.8287 14.8287 9.17188M7.05063 11.293 5.63642 12.7072C4.07432 14.2693 4.07432 16.8019 5.63642 18.364 7.19851 19.9261 9.73117 19.9261 11.2933 18.364L12.7075 16.9498M11.293 7.05063 12.7072 5.63642C14.2693 4.07432 16.8019 4.07432 18.364 5.63642 19.9261 7.19851 19.9261 9.73117 18.364 11.2933L16.9498 12.7075" stroke="currentColor" stroke-width="2" stroke-linecap="round" stroke-linejoin="round"/></symbol><symbol viewBox="0 0 24 24" fill="none" id="svg-logout" xmlns="http://www.w3.org/2000/svg"><path d="M14.909 5V9H9V15H14.909V19L21 12L14.909 5Z" fill="currentColor"/><path d="M9.25 5V4.75H9H5.66667C4.59676 4.75 3.75 5.65702 3.75 6.75V17.25C3.75 18.343 4.59676 19.25 5.66667 19.25H9H9.25V19V18.125V17.875H9H5.66667C5.35587 17.875 5.08333 17.6068 5.08333 17.25V6.75C5.08333 6.39322 5.35587 6.125 5.66667 6.125H9H9.25V5.875V5Z" fill="currentColor" stroke="currentColor" stroke-width=".5"/></symbol><symbol viewBox="0 0 50 10" fill="none" id="svg-menu" xmlns="http://www.w3.org/2000/svg"><rect x="20" width="10" height="10" rx="5" fill="currentColor"/><rect width="10" height="10" rx="5" fill="currentColor"/><rect x="40" width="10" height="10" rx="5" fill="currentColor"/></symbol><symbol viewBox="0 0 24 24" fill="none" id="svg-pin" xmlns="http://www.w3.org/2000/svg"><path fill-rule="evenodd" clip-rule="evenodd" d="M19 9.92295C19 16.1536 12 20.9997 12 20.9997C12 20.9997 5 16.1536 5 9.92295C5 8.08687 5.7375 6.32599 7.05025 5.02769C8.36301 3.72938 10.1435 3 12 3C13.8565 3 15.637 3.72938 16.9497 5.02769C18.2625 6.32599 19 8.08687 19 9.92295ZM14.3986 9.59791C14.3986 10.9234 13.3241 11.9979 11.9986 11.9979C10.6731 11.9979 9.59863 10.9234 9.59863 9.59791C9.59863 8.27245 10.6731 7.19796 11.9986 7.19796C13.3241 7.19796 14.3986 8.27245 14.3986 9.59791Z" fill="currentColor"/></symbol><symbol viewBox="0 0 19 22" fill="none" id="svg-play" xmlns="http://www.w3.org/2000/svg"><g clip-path="url(#aza)"><path d="M0.248413 22.145L19.4984 11.0005L0.248413 -0.144104V22.145Z" fill="currentColor"/></g><defs><clipPath id="aza"><path fill="#fff" d="M0 0H19V22H0z"/></clipPath></defs></symbol><symbol viewBox="0 0 24 24" fill="none" id="svg-plus" xmlns="http://www.w3.org/2000/svg"><path fill="#202020" d="M11 2H13V22H11z"/><path fill="#202020" d="M2 11H22V13H2z"/></symbol><symbol viewBox="0 0 24 24" fill="none" id="svg-plus-bold" xmlns="http://www.w3.org/2000/svg"><path d="M4.7998 12H19.1998M12 19.2 12 4.79995" stroke="currentColor" stroke-width="3.6"/></symbol><symbol viewBox="0 0 20 20" fill="none" id="svg-profile" xmlns="http://www.w3.org/2000/svg"><path d="M9.86101 17.3332C8.6508 17.3332 7.44001 17.3332 6.22921 17.3332 5.62528 17.3332 5.06008 17.1912 4.56884 16.8232 4.02184 16.4147 3.7008 15.863 3.64269 15.1934 3.53646 13.9608 3.67967 12.7483 4.13863 11.5915 4.41741 10.8872 4.83471 10.285 5.52609 9.91409 5.94449 9.68881 6.41377 9.57483 6.8889 9.58308 7.03973 9.58308 7.19937 9.66172 7.3373 9.73685 7.56326 9.86068 7.77278 10.0145 7.99288 10.1477 9.24221 10.9142 10.4916 10.9128 11.7409 10.1436 11.917 10.0338 12.1007 9.92642 12.2691 9.80082 12.5626 9.57897 12.8912 9.5508 13.2416 9.60186 14.2306 9.74682 14.9243 10.2885 15.3891 11.1589 15.7929 11.916 15.976 12.733 16.057 13.5764 16.0987 14.0131 16.1157 14.4533 16.1157 14.8917 16.1199 15.5006 15.8921 16.0882 15.4786 16.5352 15.0651 16.9822 14.497 17.2549 13.8896 17.298 13.5644 17.325 13.2363 17.3262 12.91 17.3274 11.8923 17.3356 10.877 17.3332 9.86101 17.3332ZM9.76981 2.3332C11.7183 2.31266 13.3899 3.92725 13.3869 5.94916 13.3869 7.96168 11.7318 9.5751 9.76394 9.55984 8.8136 9.54698 7.90658 9.16023 7.23936 8.48337 6.57214 7.80652 6.19845 6.89405 6.19922 5.94362 6.19999 4.99319 6.57517 4.08133 7.24349 3.40556 7.9118 2.72979 8.81944 2.34452 9.76981 2.3332Z" fill="#202020"/></symbol><symbol viewBox="0 0 88 88" fill="none" id="svg-romb" xmlns="http://www.w3.org/2000/svg"><rect x="44" y=".828" width="61" height="61" rx="3" transform="rotate(45 44 .828)" fill="#131212" fill-opacity=".01" stroke="#fff" stroke-width="4"/></symbol><symbol viewBox="0 0 24 24" fill="none" id="svg-search" xmlns="http://www.w3.org/2000/svg"><path fill-rule="evenodd" clip-rule="evenodd" d="M15.4711 7.26241C17.7189 9.6972 17.5672 13.4932 15.1325 15.7409C12.6977 17.9887 8.90171 17.8371 6.65394 15.4023C4.40616 12.9675 4.55777 9.17156 6.99256 6.92379C9.42735 4.67601 13.2233 4.82762 15.4711 7.26241ZM17.1818 16.4867C19.7477 13.4483 19.7079 8.90333 16.9406 5.90576C13.9436 2.65938 8.88229 2.45723 5.63591 5.45426C2.38953 8.45129 2.18738 13.5126 5.18441 16.759C7.9517 19.7565 12.4789 20.1586 15.7123 17.8433L18.4678 20.8281L19.9373 19.4715L17.1818 16.4867Z" fill="currentColor"/></symbol><symbol viewBox="0 0 20 21" fill="none" id="svg-share" xmlns="http://www.w3.org/2000/svg"><g clip-path="url(#bfa)"><path d="M6.11735 13.138C4.73822 15.0516 2.32551 14.9554 1.00948 13.5943C0.378459 12.9486 0.0161206 12.0705 0.000525006 11.1491C-0.0150705 10.2277 0.317325 9.3368 0.926104 8.66831C2.10016 7.35737 4.38142 7.03022 5.90852 8.7724L11.4799 5.2763C11.1133 4.25024 11.1741 3.25393 11.6782 2.30222C12.0554 1.57211 12.6777 1.01257 13.4261 0.730655C15.0193 0.114708 16.7169 0.763527 17.5695 2.30535C18.368 3.75013 18.0202 5.63397 16.756 6.73203C15.5939 7.74087 13.5087 7.97801 12.0507 6.28748L9.55314 7.85279L6.65217 9.67324C6.5718 9.72333 6.48767 9.75542 6.53724 9.89238C6.79145 10.5705 6.81793 11.3183 6.61236 12.0141C6.61138 12.0312 6.6129 12.0484 6.61687 12.065C6.66945 12.0955 6.72804 12.1315 6.78738 12.1636C8.43992 13.0454 10.0925 13.9285 11.745 14.8129C11.887 14.8912 11.9516 14.8677 12.0455 14.7433C12.8808 13.6585 14.2704 13.221 15.5894 13.6178C16.3809 13.8633 17.0585 14.4027 17.4937 15.134C17.9288 15.8652 18.0914 16.7374 17.9506 17.5853C17.8097 18.4331 17.3752 19.1976 16.7295 19.7339C16.0837 20.2702 15.2715 20.541 14.4469 20.495C12.8492 20.4237 11.4806 19.0995 11.2793 17.4426C11.2212 16.9908 11.2552 16.5313 11.3792 16.0941C11.3888 16.0743 11.3941 16.0526 11.3947 16.0305C11.3954 16.0083 11.3914 15.9863 11.383 15.966C11.3746 15.9456 11.3621 15.9274 11.3463 15.9126C11.3304 15.8979 11.3117 15.8869 11.2913 15.8805C9.58869 14.9741 7.88607 14.066 6.18345 13.156C6.16193 13.1481 6.13982 13.1421 6.11735 13.138Z" fill="currentColor"/></g><defs><clipPath id="bfa"><path fill="#fff" transform="translate(0 .5)" d="M0 0H20V20H0z"/></clipPath></defs></symbol><symbol viewBox="0 0 72 72" fill="none" id="svg-t" xmlns="http://www.w3.org/2000/svg"><path fill-rule="evenodd" clip-rule="evenodd" d="M72 36C72 55.8822 55.8822 72 36 72C16.1178 72 0 55.8822 0 36C0 16.1178 16.1178 0 36 0C55.8822 0 72 16.1178 72 36ZM24.1073 32.7023C20.501 34.2768 16.7957 35.8947 13.4074 37.761C11.6382 39.0564 13.9896 39.9728 16.1957 40.8323C16.5464 40.9689 16.8933 41.104 17.2196 41.2391C17.4911 41.3226 17.767 41.4105 18.0468 41.4996C20.5004 42.2812 23.2361 43.1529 25.6181 41.8418C29.531 39.594 33.2235 36.9954 36.9134 34.3988C38.1222 33.5479 39.3308 32.6974 40.5467 31.8596C40.6037 31.8231 40.6679 31.7814 40.7382 31.7359C41.774 31.0644 44.1036 29.5543 43.2419 31.6351C41.2043 33.8635 39.0216 35.8361 36.8272 37.8195C35.3482 39.1562 33.8639 40.4977 32.4149 41.9258C31.1529 42.9511 29.8424 45.0132 31.2555 46.4492C34.5103 48.7276 37.8161 50.951 41.1198 53.173C42.1949 53.896 43.2699 54.6191 44.3427 55.3438C46.161 56.7956 49.0028 55.6212 49.4025 53.3528C49.5803 52.3092 49.7588 51.2658 49.9372 50.2222C50.9236 44.4552 51.9104 38.6861 52.782 32.9002C52.9005 31.9926 53.0347 31.0851 53.1691 30.1771C53.4948 27.9765 53.8209 25.7731 53.9228 23.5606C53.6603 21.3526 50.983 21.8382 49.4932 22.3347C41.8354 25.2486 34.2542 28.3785 26.7028 31.5636C25.8474 31.9425 24.9803 32.3211 24.1073 32.7023Z" fill="currentColor"/></symbol><symbol viewBox="0 0 22 24" fill="none" id="svg-telegram" xmlns="http://www.w3.org/2000/svg"><path fill-rule="evenodd" clip-rule="evenodd" d="M3.16866 11.065C7.73205 9.07677 10.775 7.76602 12.2976 7.13274C16.6448 5.32458 17.5481 5.01048 18.1369 5.00011C18.2664 4.99783 18.5559 5.02992 18.7435 5.18211C18.9018 5.31061 18.9454 5.4842 18.9663 5.60603C18.9871 5.72786 19.0131 6.00541 18.9924 6.22227C18.7569 8.6975 17.7375 14.7042 17.2189 17.4765C16.9995 18.6496 16.5674 19.0429 16.1492 19.0814C15.2401 19.1651 14.5498 18.4807 13.6694 17.9035C12.2916 17.0004 11.5133 16.4382 10.176 15.5569C8.63045 14.5384 9.63235 13.9787 10.5131 13.0638C10.7436 12.8244 14.7489 9.18133 14.8264 8.85084C14.8361 8.80951 14.8451 8.65544 14.7536 8.57408C14.6621 8.49273 14.527 8.52055 14.4295 8.54267C14.2913 8.57404 12.0904 10.0288 7.82663 12.9069C7.2019 13.3359 6.63604 13.5449 6.12904 13.534C5.57012 13.5219 4.49499 13.2179 3.69573 12.9581C2.71541 12.6395 1.93627 12.471 2.00412 11.9298C2.03946 11.6479 2.42764 11.3596 3.16866 11.065Z" fill="currentColor"/></symbol><symbol viewBox="0 0 24 24" fill="none" id="svg-tick" xmlns="http://www.w3.org/2000/svg"><path d="M4 12.3137L9.65685 17.9706L20.9706 6.65687" stroke="#202020" stroke-width="2" stroke-linecap="square"/></symbol><symbol viewBox="0 0 20 20" fill="none" id="svg-trash" xmlns="http://www.w3.org/2000/svg"><path d="M11.6666 9.16602V13.3327M8.33337 9.16602V13.3327M15 5.83398H5V15.9451C5 16.344 5.3731 16.6673 5.83333 16.6673H14.1667C14.6269 16.6673 15 16.344 15 15.9451V5.83398ZM3.33337 5.83398H16.6667M12.5 3.33398H7.49996C7.03972 3.33398 6.66663 3.70708 6.66663 4.16732V5.83398H13.3333V4.16732C13.3333 3.70708 12.9602 3.33398 12.5 3.33398Z" stroke="currentColor" stroke-width="1.667" stroke-linecap="round" stroke-linejoin="round"/></symbol><symbol viewBox="0 0 180 180" fill="none" id="svg-user-empty" xmlns="http://www.w3.org/2000/svg"><path d="M88.7647 155.999C77.8729 155.999 66.9757 155.999 56.0785 155.999 50.6431 155.999 45.5564 154.721 41.1352 151.409 36.2122 147.732 33.3228 142.767 32.7999 136.74 31.8438 125.647 33.1326 114.734 37.2633 104.323 39.7724 97.9846 43.528 92.5651 49.7504 89.2267 53.5161 87.1992 57.7395 86.1733 62.0157 86.2476 63.3732 86.2476 64.81 86.9554 66.0513 87.6315 68.0849 88.746 69.9707 90.13 71.9515 91.329 83.1955 98.2276 94.4396 98.2153 105.684 91.2921 107.268 90.3043 108.922 89.3376 110.438 88.2073 113.079 86.2106 116.037 85.957 119.19 86.4166 128.091 87.7213 134.334 92.5968 138.518 100.43 142.152 107.244 143.8 114.597 144.529 122.188 144.904 126.118 145.057 130.079 145.057 134.025 145.095 139.505 143.045 144.794 139.323 148.817 135.602 152.839 130.488 155.294 125.022 155.682 122.095 155.925 119.143 155.936 116.206 155.946 107.046 156.02 97.9082 155.999 88.7647 155.999ZM87.9361 21.0017C105.473 20.8169 120.517 35.3482 120.49 53.5454 120.49 71.658 105.594 86.1788 87.8832 86.0415 79.3302 85.9257 71.167 82.445 65.1621 76.3533 59.1571 70.2616 55.7938 62.0494 55.8008 53.4955 55.8077 44.9417 59.1843 36.7349 65.1992 30.653 71.214 24.571 79.3828 21.1036 87.9361 21.0017Z" fill="#C4C4C4"/></symbol><symbol viewBox="0 0 24 24" fill="none" id="svg-vk" xmlns="http://www.w3.org/2000/svg"><path d="M9.95133 14.0668V5H13.4716V10.0216C16.2879 9.68682 18.0675 6.53438 18.6054 5H22.2723C21.8323 8.20824 18.9232 10.6725 17.4319 11.4165C19.9255 12.1837 23.0057 15.8801 23.0057 17.9724H19.1921C17.784 14.4015 14.7917 13.3228 13.4716 13.2298V17.9724C5.18429 18.5304 0.783936 11.9744 1.00396 5H4.67091C4.89094 11.556 8.41122 13.5088 9.95133 14.0668Z" fill="currentColor"/></symbol></svg>